<svg height="400pt" viewBox="-33 0 400 400.30357" width="400pt" xmlns="http://www.w3.org/2000/svg"><path d="m334.4375 189.464844c0-21.777344-9.746094-41.285156-25.058594-54.515625-3.863281-74.789063-66.589844-134.949219-142.132812-134.949219-75.453125 0-138.179688 60.164062-142.042969 134.957031-15.308594 13.226563-25.050781 32.734375-25.050781 54.507813 0 39.757812 32.339844 72.097656 72.089844 72.097656 5.046874 0 9.140624-4.089844 9.140624-9.144531l.003907-125.898438c0-2.429687-.960938-4.75-2.675781-6.464843-1.714844-1.714844-4.042969-2.679688-6.464844-2.679688-9.703125 0-18.949219 1.953125-27.40625 5.441406 9.476562-58.964844 61.117187-104.53125 122.5-104.53125 61.296875 0 112.929687 45.566406 122.40625 104.53125-8.457032-3.488281-17.699219-5.441406-27.398438-5.441406-5.046875 0-9.140625 4.089844-9.140625 9.144531v125.898438c0 5.054687 4.09375 9.144531 9.140625 9.144531 9.714844 0 18.976563-1.957031 27.441406-5.457031-7.722656 48.390625-43.835937 88.457031-91.816406 100.621093-5.507812-10.253906-17.15625-17.40625-30.722656-17.40625-18.839844 0-34.164062 13.679688-34.164062 30.492188s15.324218 30.492188 34.164062 30.492188c16.917969 0 30.902344-11.0625 33.59375-25.496094 60.785156-14.652344 105.382812-68.199219 108.570312-130.851563 15.292969-13.234375 25.023438-32.730469 25.023438-54.492187zm-271.339844 53.035156c-25.324218-4.355469-44.660156-26.480469-44.660156-53.035156 0-26.554688 19.335938-48.671875 44.664062-53.027344zm104.152344 139.519531c-8.753906 0-15.878906-5.476562-15.878906-12.207031s7.125-12.207031 15.878906-12.207031 15.875 5.476562 15.875 12.207031-7.121094 12.207031-15.875 12.207031zm104.242188-245.582031c25.324218 4.355469 44.660156 26.472656 44.660156 53.027344 0 26.554687-19.335938 48.679687-44.660156 53.035156zm0 0"/></svg>