<?xml version="1.0"?>
<svg xmlns="http://www.w3.org/2000/svg" xmlns:xlink="http://www.w3.org/1999/xlink" version="1.1" id="Capa_1" x="0px" y="0px" viewBox="0 0 480 480" style="enable-background:new 0 0 480 480;" xml:space="preserve" width="512px" height="512px"><g><g>
	<g>
		<path d="M472,232h-40.2C427.523,132.315,347.685,52.477,248,48.2V8c0-4.418-3.582-8-8-8s-8,3.582-8,8v40.2    C132.315,52.477,52.477,132.315,48.2,232H8c-4.418,0-8,3.582-8,8s3.582,8,8,8h40.2c4.277,99.685,84.115,179.523,183.8,183.8V472    c0,4.418,3.582,8,8,8s8-3.582,8-8v-40.2c99.685-4.277,179.523-84.115,183.8-183.8H472c4.418,0,8-3.582,8-8S476.418,232,472,232z     M376,248h39.8c-4.241,90.859-76.941,163.559-167.8,167.8V376c0-4.418-3.582-8-8-8s-8,3.582-8,8v39.8    C141.141,411.559,68.441,338.859,64.2,248H104c4.418,0,8-3.582,8-8s-3.582-8-8-8H64.2C68.441,141.141,141.141,68.441,232,64.2V104    c0,4.418,3.582,8,8,8s8-3.582,8-8V64.2c90.859,4.241,163.559,76.941,167.8,167.8H376c-4.418,0-8,3.582-8,8S371.582,248,376,248z" data-original="#000000" class="active-path" data-old_color="#000000" fill="#7F848D"/>
	</g>
</g></g> </svg>
